<svg xmlns="http://www.w3.org/2000/svg" width="16" height="15" viewBox="0 0 16 15">
    <g fill="none">
        <path fill="#F7434C" d="M14.744 7H1.256C1.114 7 1 7.108 1 7.242v7.516c0 .134.114.242.256.242h13.488c.142 0 .256-.108.256-.242V7.242c0-.134-.115-.242-.256-.242z"/>
        <path fill="#DB2E37" d="M14.744 7H1.256C1.114 7 1 7.09 1 7.2V8h14v-.8c0-.11-.115-.2-.256-.2z"/>
        <path fill="#FFDB57" d="M9.673 7H6.327C6.147 7 6 7.108 6 7.242v7.516c0 .134.147.242.327.242h3.346c.18 0 .327-.108.327-.242V7.242C10 7.108 9.853 7 9.673 7z"/>
        <path fill="#F5BA3D" d="M9.673 7H6.327C6.147 7 6 7.09 6 7.2V8h4v-.8c0-.11-.147-.2-.327-.2z"/>
        <path fill="#FFDB57" d="M13.766 1.665c-.22-.563-.567-1.113-.929-1.471-.132-.131-.311-.198-.514-.194-.675.016-1.773.846-3.265 2.467-.037.04-.058.093-.058.148V3.78c0 .121.1.22.224.22h3.454c.77 0 1.087-.367 1.218-.675.174-.411.128-1-.13-1.66z"/>
        <path fill="#EF9325" d="M13.896 2.49c-.006-.03-.015-.057-.028-.082-.33-.647-1.045-.405-1.586-.088-1.57.92-2.22 2.189-2.247 2.242-.043.088-.047.199-.008.29.038.091.112.148.192.148h2.49c.478 0 .832-.19 1.053-.564.262-.444.309-1.117.134-1.946z"/>
        <path fill="#FFDB57" d="M6.942 2.467C5.45.846 4.352.016 3.677 0c-.203-.004-.382.063-.514.194-.362.358-.71.908-.93 1.47-.257.66-.303 1.25-.129 1.66.131.309.449.676 1.218.676h3.454C6.9 4 7 3.901 7 3.78V2.615c0-.055-.02-.107-.058-.148z"/>
        <path fill="#EF9325" d="M5.965 4.562C5.938 4.51 5.289 3.24 3.718 2.32c-.541-.317-1.255-.56-1.586.088-.013.025-.022.052-.028.081-.175.83-.128 1.503.134 1.947.22.374.575.564 1.052.564h2.491c.08 0 .154-.057.192-.148.039-.091.035-.202-.008-.29z"/>
        <path fill="#F5BA3D" d="M9.71 3H7.29c-.16 0-.29.108-.29.242v1.516c0 .134.13.242.29.242h2.42c.16 0 .29-.108.29-.242V3.242C10 3.108 9.87 3 9.71 3z"/>
        <path fill="#F7434C" d="M15.747 4H.253C.113 4 0 4.15 0 4.337v3.326C0 7.849.113 8 .253 8h15.494c.14 0 .253-.15.253-.337V4.337c0-.186-.113-.337-.253-.337z"/>
        <path fill="#FFDB57" d="M6 4H10V8H6z"/>
    </g>
</svg>
