<svg xmlns="http://www.w3.org/2000/svg" width="25" height="24" viewBox="0 0 25 24">
    <g fill="#FFF" fill-rule="nonzero">
        <path d="M8.954 18a2.954 2.954 0 1 0 0 5.908 2.954 2.954 0 0 0 0-5.908zm0 4.822a1.868 1.868 0 1 1 0-3.736 1.868 1.868 0 0 1 0 3.736zM24.458 5.03a38.176 38.176 0 0 0-3.783 0H5.127L4.74 2.867C4.496 1.533 3.43.491 2.073.256L.643.008A.547.547 0 0 0 .01.444a.538.538 0 0 0 .443.623l1.429.247a2.17 2.17 0 0 1 1.774 1.74l1.938 10.728c.229 1.283 1.365 2.22 2.693 2.218h11.497c1.207.004 2.274-.772 2.622-1.907l2.573-8.369a.553.553 0 0 0-.082-.478c-.104-.134-.17-.201-.438-.215zm-2.9 8.802c-.213.696-.874 1.171-1.623 1.168H8.34c-.823.002-1.572-.585-1.711-1.373L5.24 6H24l-2.442 7.832zM19.356 18a2.954 2.954 0 1 0 0 5.908 2.954 2.954 0 0 0 0-5.908zm0 4.822a1.868 1.868 0 1 1 0-3.736 1.868 1.868 0 0 1 0 3.736z"/>
    </g>
</svg>
