<?xml version="1.0" encoding="UTF-8"?>
<svg width="19px" height="16px" viewBox="0 0 19 16" version="1.1" xmlns="http://www.w3.org/2000/svg" xmlns:xlink="http://www.w3.org/1999/xlink">
    <!-- Generator: Sketch 54.1 (76490) - https://sketchapp.com -->
    <title>Group 11</title>
    <desc>Created with Sketch.</desc>
    <g id="Page-1" stroke="none" stroke-width="1" fill="none" fill-rule="evenodd">
        <g id="CCHome" transform="translate(-336.000000, -549.000000)" fill-rule="nonzero">
            <g id="Group-11" transform="translate(336.000000, 549.000000)">
                <g id="Group-9">
                    <path d="M19,10 L18.1084298,10 C18.1084298,9.4102759 17.6487065,8.93050666 17.0836887,8.93050666 L17,8.93050666 L17,8 L17.0836887,8 C18.140348,8 19,8.89719452 19,10 Z" id="Path" fill="#FC8656"></path>
                    <path d="M10.9617478,1.73143641 L9.0666913,1.73143641 L8.27826087,8.89493602 L9.06665435,14.4011104 L10.5426978,14.4011104 L10.8909761,15.6923077 L14.2295913,15.6923077 L14.2295913,13.3898111 C15.9396435,12.227687 16.9890239,10.2185278 16.9890239,8.06623458 C16.9890239,4.57322011 14.2851739,1.73143641 10.9617478,1.73143641 Z" id="Path" fill="#FDB79A"></path>
                    <path d="M7.56884348,1.73143641 C7.46555,1.33959482 7.26535652,0.981429551 6.98204783,0.690228484 C6.56528913,0.261836253 6.01467391,0.0259078446 5.43161087,0.0259078446 L3.78187174,0.0259078446 L3.78187174,2.80259177 C2.83608043,3.4702917 2.08216739,4.41357807 1.6218,5.50601904 L-8.8817842e-16,5.9616786 L-8.8817842e-16,10.1708682 L1.62165217,10.626489 C2.0966913,11.7543542 2.88101957,12.7188873 3.8680913,13.3897723 L3.8680913,15.6923077 L7.20670652,15.6923077 L7.55498478,14.4011104 L9.0666913,14.4011104 L9.0666913,1.73143641 L7.56884348,1.73143641 Z" id="Path" fill="#FDB79A"></path>
                    <g id="Group" transform="translate(8.000000, 0.000000)">
                        <g transform="translate(0.608108, 0.608108)" id="Path">
                            <path d="M2.39189189,0 L2.39189189,0 L2.17568919,2.16214865 L2.39189189,4.75674324 L2.39189189,4.75674324 C3.70544595,4.75674324 4.77028378,3.69190541 4.77028378,2.37835135 C4.77028378,1.06483784 3.70544595,0 2.39189189,0 Z" fill="#FFB62D"></path>
                            <path d="M0.0135,2.37839189 C0.0135,3.69194595 1.07833784,4.75678378 2.39189189,4.75678378 L2.39189189,0 C1.07833784,0 0.0135,1.06483784 0.0135,2.37839189 Z" fill="#FDCB02"></path>
                        </g>
                        <g id="Path">
                            <path d="M3,0 L3,0 L2.7972973,0.608108108 L3,1.21621622 L3,1.21621622 C3.97609459,1.21621622 4.77024324,2.01036486 4.77024324,2.9865 C4.77024324,3.96263514 3.97609459,4.75678378 3,4.75678378 L3,4.75678378 L2.75675676,5.36489189 L3,5.973 L3,5.973 C4.64671622,5.973 5.98645946,4.63325676 5.98645946,2.9865 C5.9865,1.33974324 4.64675676,0 3,0 Z" fill="#FDDC46"></path>
                            <path d="M1.22971622,2.9865 C1.22971622,2.01036486 2.02386486,1.21625676 3,1.21621622 L3,0 C1.35324324,0 0.0135,1.33974324 0.0135,2.9865 C0.0135,4.63325676 1.35324324,5.973 3,5.973 L3,4.75678378 C2.02386486,4.75674324 1.22971622,3.96263514 1.22971622,2.9865 Z" fill="#FCE270"></path>
                        </g>
                    </g>
                </g>
                <rect id="Rectangle" fill="#673416" x="5" y="7" width="1" height="1"></rect>
                <g id="Group" transform="translate(8.000000, 5.000000)">
                    <polygon id="Path" fill="#AB5E2E" points="3 0.978516129 3 0.0107741935 0.7999875 0.0107741935 0.4000125 0.494645161 0.7999875 0.978516129"></polygon>
                    <rect id="Rectangle" fill="#C76D36" x="0" y="0.0107741935" width="1" height="1"></rect>
                </g>
            </g>
        </g>
    </g>
</svg>