<svg xmlns="http://www.w3.org/2000/svg" width="22" height="26" viewBox="0 0 22 26">
    <g fill="none" fill-rule="evenodd" stroke="#FFF">
        <path fill-rule="nonzero" d="M18.647 16.381v-6.004c0-4.427-2.47-7.998-5.882-8.997L11.617 1.1C10.77.997 10.804 1 10.777 1c-.027 0-.007-.003-.93.197l-.612.183c-3.411 1-5.882 4.57-5.882 8.997v7.137a2 2 0 0 1-.456 1.271l-.989 1.2A3.98 3.98 0 0 0 1 22.515h20a3.98 3.98 0 0 0-.908-2.53l-.268-.326a5.156 5.156 0 0 1-1.177-3.278z"/>
        <path stroke-linecap="square" d="M9.97 22.818h2.174l.09.537a1.157 1.157 0 0 1-1.14 1.35 1.203 1.203 0 0 1-1.192-1.358l.069-.529z"/>
    </g>
</svg>
