<svg id="ecibcscj0y351" xmlns="http://www.w3.org/2000/svg" xmlns:xlink="http://www.w3.org/1999/xlink" viewBox="0 0 17.03 21.65"><defs><style>.cls-1,.cls-2,.cls-3{fill-rule:evenodd;}.cls-1{fill:url(#linear-gradient);}.cls-2{fill:url(#linear-gradient-2);}.cls-3{fill:url(#linear-gradient-3);}.cls-4{filter:url(#ecibcscj0y3548-filter);}</style><linearGradient id="linear-gradient" x1="-231.62" y1="370.92" x2="-226.72" y2="374.12" gradientTransform="matrix(11.32, 0, 0, -10.28, 2619.85, 3834.47)" gradientUnits="userSpaceOnUse"><stop offset="0" stop-color="#ed6c0e"/><stop offset="1" stop-color="#f6df41"/></linearGradient><linearGradient id="linear-gradient-2" x1="-238.74" y1="391.38" x2="-238.44" y2="390.41" gradientTransform="matrix(17.03, 0, 0, -21.65, 4071.48, 8471.41)" gradientUnits="userSpaceOnUse"><stop offset="0" stop-color="#ff8100"/><stop offset="1" stop-color="#f6df41"/></linearGradient><linearGradient id="linear-gradient-3" x1="-229.46" y1="372.69" x2="-228.84" y2="373.62" gradientTransform="matrix(10.46, 0, 0, -10.8, 2408, 4034.7)" xlink:href="#linear-gradient"/><filter id="ecibcscj0y3548-filter" x="-402.51" y="-401.18" width="600" height="600" name="ecibcscj0y3548-filter"><feGaussianBlur result="result" stdDeviation="1"/></filter></defs><title>1-0</title><g id="ecibcscj0y3543"><g id="ecibcscj0y3544_tr" data-name="ecibcscj0y3544 tr"><g id="ecibcscj0y3544_ts" data-name="ecibcscj0y3544 ts"><g id="ecibcscj0y3544"><polyline id="ecibcscj0y3545" class="cls-1" points="7.35 13.63 11.32 16.02 6.8 11.37 0 21.65 0 21.65 7.35 13.63"/><polygon id="ecibcscj0y3546" class="cls-2" points="11.56 10.8 6.58 5.88 0 21.65 6.8 11.37 11.32 16.03 17.03 0 11.56 10.8"/><polygon id="ecibcscj0y3547" class="cls-3" points="11.56 10.8 17.03 0 10.79 8.43 6.58 5.88 11.56 10.8"/></g></g></g><g id="ecibcscj0y3548_ts" data-name="ecibcscj0y3548 ts"><g id="ecibcscj0y3548" class="cls-4"><polyline id="ecibcscj0y3549" class="cls-1" points="7.35 13.63 11.32 16.02 6.8 11.37 0 21.65 0 21.65 7.35 13.63"/><polygon id="ecibcscj0y3550" class="cls-2" points="11.56 10.8 6.58 5.88 0 21.65 6.8 11.37 11.32 16.03 17.03 0 11.56 10.8"/><polygon id="ecibcscj0y3551" class="cls-3" points="11.56 10.8 17.03 0 10.79 8.43 6.58 5.88 11.56 10.8"/></g></g></g></svg>