<svg id="Capa_1" enable-background="new 0 0 512 512" height="512" viewBox="0 0 512 512" width="512" xmlns="http://www.w3.org/2000/svg"><g><path d="m512 256c0-19.047-9.563-35.857-24.149-45.897-9.768-6.724-13.211-19.574-8.114-30.281 7.612-15.988 7.488-35.327-2.035-51.822s-26.21-26.272-43.862-27.674c-11.821-.939-21.228-10.346-22.167-22.167-1.401-17.652-11.178-34.338-27.673-43.862-16.496-9.524-35.834-9.647-51.822-2.035-10.707 5.097-23.557 1.654-30.28-8.114-10.041-14.585-26.851-24.148-45.898-24.148s-35.857 9.563-45.897 24.149c-6.724 9.768-19.573 13.211-30.28 8.114-15.988-7.611-35.327-7.488-51.822 2.035-16.495 9.524-26.272 26.21-27.674 43.862-.939 11.821-10.346 21.228-22.167 22.167-17.652 1.401-34.339 11.178-43.862 27.673-9.524 16.496-9.647 35.834-2.035 51.822 5.097 10.707 1.654 23.557-8.114 30.281-14.586 10.04-24.149 26.85-24.149 45.897s9.563 35.857 24.149 45.897c9.768 6.724 13.211 19.574 8.114 30.281-7.612 15.988-7.488 35.327 2.035 51.822 9.524 16.496 26.21 26.272 43.862 27.674 11.821.939 21.228 10.346 22.167 22.167 1.402 17.652 11.178 34.338 27.674 43.862 16.495 9.524 35.834 9.647 51.822 2.035 10.707-5.097 23.557-1.654 30.281 8.114 10.039 14.585 26.849 24.148 45.896 24.148s35.857-9.563 45.897-24.148c6.724-9.768 19.574-13.211 30.281-8.114 15.988 7.612 35.327 7.488 51.822-2.035 16.495-9.524 26.272-26.21 27.674-43.862.939-11.821 10.346-21.228 22.167-22.167 17.652-1.402 34.338-11.178 43.862-27.674s9.647-35.834 2.035-51.822c-5.097-10.707-1.654-23.557 8.114-30.281 14.585-10.04 24.148-26.85 24.148-45.897z" fill="#fe646f"/><path d="m487.849 210.102c-9.763-6.721-13.206-19.567-8.108-30.276 7.605-15.991 7.482-35.332-2.035-51.827-8.705-15.066-23.38-24.531-39.309-27.121 7.523 4.676 14.028 11.222 18.755 19.413 3.185 5.519 5.401 11.587 6.545 17.855 2.192 12.005-.199 23.589-4.856 34.751-1.018 2.441-1.737 4.947-2.341 7.517-2.968 12.642 3.32 27.147 12.77 35.863 4.753 4.384 9.794 8.52 13.977 13.478 6.722 7.967 9.093 16.921 7.54 27.306-2.224 14.871-11.163 28.64-23.492 37.127-9.763 6.721-13.206 19.577-8.108 30.286 7.605 15.981 7.482 35.322-2.035 51.817-12.585 21.813-41.078 12.813-56.647 28.803-5.479 5.627-8.765 13.236-9.383 21.042-.769 9.718-4.151 19.237-9.663 27.248-3.2 4.648-7.814 8.105-12.997 10.267-11.094 4.628-23.807.962-35-1.273-13.003-2.596-25.906-2.425-37.615 4.406-5.721 3.337-10.746 7.894-14.504 13.356-10.041 14.593-26.854 24.151-45.897 24.151-3.032 0-6.002-.247-8.9-.709 8.55 5.334 18.642 8.417 29.454 8.417 19.043 0 35.856-9.558 45.897-24.151 6.721-9.763 19.578-13.206 30.276-8.109 15.991 7.615 35.332 7.492 51.827-2.035s26.268-26.206 27.676-43.862c.935-11.819 10.339-21.232 22.167-22.168 17.646-1.398 34.335-11.181 43.862-27.676 9.516-16.495 9.64-35.836 2.035-51.817-5.097-10.709-1.655-23.565 8.108-30.286 14.594-10.04 24.152-26.843 24.152-45.896 0-19.044-9.558-35.857-24.151-45.897z" fill="#fd4755"/><circle cx="256" cy="255.762" fill="#faf7f7" r="177.954"/><path d="m433.956 255.762c0 98.279-79.677 177.956-177.956 177.956-31.602 0-61.261-8.232-86.984-22.671 20.451 8.201 42.793 12.712 66.173 12.712 98.279 0 177.956-79.667 177.956-177.946 0-66.718-36.709-124.855-91.033-155.316 65.546 26.238 111.844 90.346 111.844 165.265z" fill="#ede1dd"/><path d="m298.539 255.763 44.522-44.522c11.748-11.747 11.748-30.792 0-42.539-11.746-11.748-30.793-11.748-42.539 0l-44.522 44.522-44.522-44.522c-11.746-11.748-30.793-11.748-42.539 0-11.748 11.747-11.748 30.792 0 42.539l44.522 44.522-44.522 44.522c-11.748 11.747-11.748 30.792 0 42.539 5.873 5.874 13.571 8.811 21.269 8.811s15.396-2.937 21.269-8.811l44.523-44.523 44.522 44.522c5.873 5.874 13.571 8.811 21.269 8.811s15.396-2.937 21.269-8.811c11.748-11.747 11.748-30.792 0-42.539z" fill="#8d9ca8"/><path d="m343.056 300.282c11.757 11.747 11.757 30.79 0 42.536-5.868 5.878-13.566 8.818-21.263 8.818-4.645 0-9.29-1.069-13.525-3.217 2.733-1.366 5.289-3.185 7.582-5.445 11.867-11.7 11.505-31.343-.279-43.127l-31.921-31.921c-6.718-6.718-6.718-17.609 0-24.327l31.921-31.921c11.785-11.785 12.146-31.428.278-43.128-2.293-2.26-4.848-4.078-7.581-5.445 11.274-5.693 25.374-3.823 34.788 5.601 11.757 11.747 11.757 30.79 0 42.536l-44.52 44.52z" fill="#7a8c98"/></g></svg>