<svg xmlns="http://www.w3.org/2000/svg" width="88" height="73" viewBox="0 0 88 73"><g fill="none" fill-rule="evenodd"><path fill="#FFFFFE" d="M46.129 30.54c-12.695 0-24.21-1.463-34.226-4.348-5.7-1.642-7.284-1.779-8.418-1.779-.155 0-.303.003-.45.006-.161.002-.321.005-.49.005-.083 0-.169 0-.257-.003a2.103 2.103 0 0 1-1.677-.88 2.004 2.004 0 0 1-.248-1.836c.356-.987.724-2.386 1.093-4.16C3.58 7.33 7.912.999 22.918.999c4.849 0 10.818.632 18.247 1.933 7.36 1.29 14.142 1.943 20.159 1.943 13.104 0 19.3-3.085 21.356-4.411a2.109 2.109 0 0 1 1.144-.338c.85 0 1.601.501 1.913 1.278 1.628 4.049 3.805 11.797.1 18.199-2.782 4.808-8.314 7.91-16.443 9.219-3.21.516-11.903 1.718-23.265 1.718"/><path fill="#DC3B74" d="M69.23 27.84c-10.74 1.73-35.258 3.673-57.042-2.601-7.549-2.175-8.122-1.777-9.88-1.81-.73-.015-1.235-.717-.99-1.392.308-.856.694-2.196 1.13-4.293C5.28 4.127 11.686-1.222 40.987 3.909c27.563 4.827 39.021-.533 42.25-2.616.561-.362 1.311-.14 1.558.474 1.94 4.828 7.71 22.326-15.565 26.073"/><path fill="#FFFFFE" d="M18.88 16.09c0 .763-.398 1.357-1.195 1.775-.651.341-1.43.514-2.34.514-1.291 0-2.368-.389-3.226-1.17-.859-.779-1.288-1.762-1.288-2.947 0-1.006.44-1.89 1.313-2.645.879-.76 1.873-1.139 2.987-1.139.796 0 1.48.176 2.048.532.652.399.977.945.977 1.64 0 .357-.095.645-.292.868-.2.255-.493.382-.867.382l-.397-.034c0-.576-.086-.987-.257-1.23-.218-.32-.608-.48-1.18-.48-.493 0-.929.21-1.305.63-.373.421-.56.865-.56 1.329 0 .96.267 1.655.797 2.075.494.408 1.275.613 2.337.613 1.004 0 1.689-.442 2.05-1.327.268.065.399.271.399.614m10.356-.98c0 1.03-.515 1.853-1.542 2.473-.82.5-1.673.746-2.556.746-1.377 0-2.55-.283-3.518-.862-1.222-.73-1.831-1.79-1.831-3.188 0-1.194.513-2.122 1.542-2.787.906-.578 2.042-.867 3.408-.867.847 0 1.612.163 2.304.484.848.398 1.268.948 1.268 1.643 0 .899-.288 1.347-.869 1.347a.81.81 0 0 1-.572-.224.688.688 0 0 1-.247-.526.48.48 0 0 1 .074-.264 4.1 4.1 0 0 0-1.283-.2c-1.614 0-2.414.638-2.414 1.91 0 1.205.808 1.81 2.426 1.81.643 0 1.195-.225 1.652-.674.46-.448.691-.97.691-1.568.447-.185.767-.58.96-1.18.338.312.507.954.507 1.927m10.388-.497c0 .753-.195 1.434-.594 2.04-.315.498-.829 1.03-1.544 1.595-.132.11-.253.167-.36.167-.11 0-.353-.122-.727-.366a4.4 4.4 0 0 0 1.14-3.007c0-.628-.207-1.186-.633-1.675-.46-.523-1.026-.78-1.704-.78-.421 0-.863.148-1.323.45.191.64.29 1.332.29 2.073 0 1.084-.187 2.083-.56 3.006-.11.255-.244.38-.402.38-.07 0-.152-.05-.234-.148-.558-.62-1.124-.916-1.705-.881l-.51.035c-.116.021-.185-.03-.196-.154-.015-.118-.033-.188-.057-.197.8-1.249 1.198-2.494 1.198-3.733 0-.876-.176-1.65-.527-2.327.025-.066.152-.21.38-.44.23-.223.344-.35.344-.374.124.067.305.174.547.316.242.145.483.384.726.716.904-.454 1.775-.684 2.61-.684 1.102 0 2.031.421 2.793 1.266a3.953 3.953 0 0 1 1.048 2.722m8.926 1.477c0 .763-.4 1.357-1.198 1.775-.654.341-1.431.514-2.339.514-1.296 0-2.369-.389-3.228-1.17-.86-.779-1.286-1.762-1.286-2.947 0-1.006.436-1.89 1.313-2.645.878-.76 1.87-1.139 2.984-1.139.797 0 1.48.176 2.048.532.65.399.98.945.98 1.64 0 .357-.095.645-.29.868-.204.255-.497.382-.868.382l-.4-.034c0-.576-.086-.987-.255-1.23-.218-.32-.611-.48-1.179-.48-.496 0-.931.21-1.307.63-.371.421-.56.865-.56 1.329 0 .96.264 1.655.796 2.075.497.408 1.277.613 2.343.613 1 0 1.683-.442 2.046-1.327.266.065.4.271.4.614m9.939-1.66c0 1.219-.39 2.194-1.17 2.937-.782.742-1.831 1.112-3.15 1.112-3.046 0-4.567-1.142-4.567-3.437 0-.429.06-.96.18-1.593.266-1.393.398-2.28.398-2.658.749.07 1.861.192 3.34.368a117.42 117.42 0 0 0-.71 1.76c-.252.732-.38 1.328-.38 1.795 0 .63.211 1.15.635 1.565.427.418.98.623 1.665.623a2.37 2.37 0 0 0 1.387-.43c.42-.287.632-.66.632-1.112 0-.584-.088-1.277-.257-2.073l-.461-2.275c.145-.235.443-.353.893-.353.324 0 .637.046.93.132l.397 1.764c.157.75.237 1.376.237 1.875m10.517.183c0 .753-.2 1.434-.598 2.04-.314.498-.83 1.03-1.543 1.595-.133.11-.251.167-.362.167-.11 0-.352-.122-.723-.366.76-.864 1.14-1.864 1.14-3.007 0-.628-.21-1.186-.635-1.675a2.169 2.169 0 0 0-1.703-.78c-.424 0-.865.148-1.325.45.193.64.29 1.332.29 2.073 0 1.084-.19 2.083-.563 3.006-.106.255-.243.38-.396.38-.073 0-.153-.05-.239-.148-.556-.62-1.123-.916-1.702-.881l-.51.035c-.12.021-.186-.03-.199-.154-.011-.118-.03-.188-.055-.197.8-1.249 1.197-2.494 1.197-3.733 0-.876-.173-1.65-.525-2.327.024-.066.152-.21.383-.44.228-.223.341-.35.341-.374.124.067.305.174.547.316.24.145.483.384.723.716.909-.454 1.778-.684 2.613-.684 1.098 0 2.029.421 2.792 1.266.702.784 1.052 1.694 1.052 2.722m9.991-3.803c0 .366-.267.545-.798.545 0-.473-.205-.71-.617-.71-.302 0-.5.194-.596.596a1.657 1.657 0 0 0-.543-.498c.227-.707.687-1.063 1.376-1.063.3 0 .574.122.814.358.242.238.364.495.364.772m-1.867 1.626c0 .266-.085.506-.256.717a.818.818 0 0 1-.67.313 2.23 2.23 0 0 1-.954-.23c-.32-.156-.538-.234-.66-.234-.47 0-.907.151-1.322.447-.447.324-.67.693-.67 1.114a.72.72 0 0 0 .308.597c.204.154.441.232.708.232.435 0 .843-.144 1.23-.431.389-.289.579-.626.579-1.013a.524.524 0 0 0-.051-.263c.29.099.533.147.742.147.282 0 .52-.086.726-.263 0 .905-.479 1.653-1.43 2.24a5.218 5.218 0 0 1-2.812.795c-.643 0-1.167-.228-1.582-.683-.37-.416-.562-.931-.562-1.54 0-.886.349-1.712 1.036-2.473.809-.898 1.85-1.347 3.118-1.347.692 0 1.27.15 1.743.449.517.341.779.818.779 1.426m1.287 6.69c0 1-.574 1.79-1.721 2.376-.942.477-2.008.715-3.192.715-.896 0-1.693-.178-2.394-.532-.859-.421-1.287-1.014-1.287-1.778 0-.353.204-.532.613-.532.314.787 1.173 1.179 2.578 1.179.64 0 1.246-.075 1.812-.231.812-.233 1.22-.567 1.22-1.015 0-.33-.283-.544-.837-.643-.22-.037-.628-.05-1.235-.05h-.54c-1.3 0-1.944-.372-1.944-1.113 0-.28.087-.494.253-.649.172.078.484.114.946.114h.27c-.072.09-.11.168-.11.243 0 .126.2.19.6.19.216 0 .538-.034.963-.107.418-.072.73-.108.924-.108.822 0 1.504.133 2.045.398.692.332 1.036.845 1.036 1.543m-18.836 1.919c0 .062-.02.098-.049.11l-.511.251a.13.13 0 0 1-.05.01c-.052 0-.096-.026-.13-.088a.311.311 0 0 1-.042-.158c0-.118.052-.211.153-.285a.577.577 0 0 1 .335-.1.31.31 0 0 1 .206.08c.057.05.088.111.088.18m2.552-.325c0 .21-.106.374-.332.494-.182.093-.398.14-.651.14-.357 0-.658-.105-.896-.325a1.056 1.056 0 0 1-.354-.818c0-.28.116-.522.362-.736a1.23 1.23 0 0 1 .828-.316c.225 0 .415.05.572.148.18.11.271.26.271.457 0 .1-.028.176-.082.238a.283.283 0 0 1-.24.108l-.114-.01c0-.16-.023-.271-.068-.342-.06-.088-.17-.13-.33-.13a.48.48 0 0 0-.364.174.555.555 0 0 0-.152.368c0 .266.074.459.222.574.137.115.352.173.648.173.28 0 .47-.125.574-.37.068.02.106.077.106.172m2.876-.272c0 .283-.143.512-.427.685a1.363 1.363 0 0 1-.71.207c-.383 0-.71-.077-.98-.24a.965.965 0 0 1-.505-.883c0-.333.142-.588.429-.775.25-.158.564-.242.943-.242.235 0 .448.049.64.137.236.106.352.261.352.454 0 .251-.08.377-.242.377a.226.226 0 0 1-.158-.066.192.192 0 0 1-.07-.145.13.13 0 0 1 .024-.073 1.21 1.21 0 0 0-.358-.054c-.446 0-.668.174-.668.529 0 .338.225.501.672.501a.64.64 0 0 0 .46-.185.602.602 0 0 0 .19-.433c.126-.056.214-.164.266-.33.093.088.142.264.142.536m4.221-.14c0 .148-.06.345-.185.591-.124.245-.185.404-.185.47-.192 0-.324-.064-.389-.193 0-.025.051-.159.154-.411a.823.823 0 0 0 .074-.332c0-.166-.07-.322-.212-.468a.648.648 0 0 0-.48-.219.584.584 0 0 0-.287.079c.088.157.131.33.131.518 0 .33-.131.647-.392.957-.05.047-.099.07-.143.07-.055 0-.115-.031-.178-.098.158-.171.24-.406.24-.706a.861.861 0 0 0-.194-.545c-.14-.185-.314-.275-.517-.275a.689.689 0 0 0-.37.123 2.1 2.1 0 0 1 .083.587c0 .282-.054.559-.157.825-.026.072-.062.107-.107.107-.024 0-.045-.014-.068-.04-.155-.176-.31-.255-.474-.247l-.143.01c-.033.007-.05-.007-.054-.043l-.01-.05c.216-.35.328-.695.328-1.04 0-.244-.05-.46-.147-.645a.483.483 0 0 1 .106-.123.515.515 0 0 0 .095-.105c.035.018.085.048.153.088.066.04.131.108.2.198a1.63 1.63 0 0 1 .725-.19c.232 0 .434.09.608.262a.765.765 0 0 1 .334-.192 1.24 1.24 0 0 1 .392-.07c.313 0 .571.118.777.342.195.22.292.474.292.765"/><path fill="#DC3B74" d="M15.277 67.04c-.556.325-1.095.487-1.618.487-.775 0-1.433-.263-1.974-.787a2.582 2.582 0 0 1-.811-1.928c0-.53.129-.998.387-1.401.258-.404.83-.921 1.713-1.552l.595-.416 3.452 4.13c-.607.654-1.189 1.143-1.744 1.468m3.943-2.57c.21-.291.42-.604.63-.928-.05-.06-.1-.125-.155-.192a.508.508 0 0 0-.811.027 20.526 20.526 0 0 1-1.124 1.47l-3.254-3.944c.904-.554 1.544-1.089 1.92-1.604v-.003l-.41-.506a.287.287 0 0 0-.462.023l-.002.003c-.229.348-.577.681-1.046 1l-.586.397-.739-.981a3.493 3.493 0 0 1-.45-.77 1.914 1.914 0 0 1-.163-.733c0-.436.16-.793.478-1.07.25-.217.555-.348.914-.395-.132-.162-.26-.319-.386-.47a.585.585 0 0 0-.684-.17 2.668 2.668 0 0 0-.615.376c-.538.44-.806.992-.806 1.658 0 .371.067.725.202 1.06.136.337.41.773.825 1.31l.505.654c-1.154.707-1.988 1.393-2.501 2.055-.514.664-.771 1.373-.771 2.127 0 1.05.362 1.913 1.086 2.591.724.678 1.654 1.017 2.79 1.017a4.39 4.39 0 0 0 2.095-.526c.659-.35 1.303-.889 1.934-1.614l1.64 1.901h.472c.328 0 .506-.378.293-.623l-1.73-1.985c.313-.36.617-.744.911-1.154m-4.69-10.694V42.866a1 1 0 0 0-1.01-.992H9.729v-2.692c0-.548.453-.992 1.011-.992h11.682v3.684h-3.56v11.904H14.53zM38.938 38.19h3.304v7.58c0 1.115.029 1.916.087 2.402.058.486.155.893.293 1.22.166.397.456.7.868.91.413.209.916.314 1.509.314.593 0 1.094-.105 1.503-.315.409-.209.7-.512.874-.91.137-.326.235-.733.293-1.22.058-.485.087-1.286.087-2.4v-6.585c0-.55.455-.996 1.016-.996h3.293v8.24c0 1.712-.105 2.973-.315 3.786-.21.813-.564 1.507-1.063 2.082-.543.632-1.289 1.106-2.236 1.421-.949.316-2.1.474-3.452.474-1.36 0-2.513-.158-3.457-.474-.944-.315-1.692-.79-2.242-1.421-.492-.575-.845-1.269-1.058-2.082-.213-.813-.32-2.074-.32-3.785v-7.244c0-.55.455-.997 1.016-.997m15.535 11.989a1.002 1.002 0 0 1 1.508-.218c.355.31.706.563 1.055.76.625.356 1.25.533 1.872.533.579 0 1.054-.152 1.427-.458.373-.305.56-.692.56-1.16 0-.518-.162-.918-.484-1.198-.322-.28-1.05-.57-2.187-.868-1.556-.412-2.655-.948-3.3-1.608-.643-.66-.966-1.565-.966-2.715 0-1.49.509-2.706 1.526-3.647 1.016-.94 2.335-1.41 3.956-1.41.875 0 1.706.115 2.491.346.785.23 1.529.58 2.23 1.048l-.87 1.962c-.238.536-.897.739-1.413.447a4.978 4.978 0 0 0-.587-.284 4.072 4.072 0 0 0-1.536-.314c-.521 0-.945.122-1.27.367-.326.245-.488.56-.488.942 0 .39.142.703.428.937.286.234.838.458 1.655.671l.196.053c1.765.469 2.927.983 3.484 1.544.376.383.662.843.858 1.379a5.18 5.18 0 0 1 .293 1.784c0 1.653-.554 2.983-1.661 3.987s-2.584 1.507-4.429 1.507c-1.107 0-2.115-.185-3.023-.554-.908-.369-1.782-.948-2.621-1.736l1.296-2.097zm14.725 3.599V41.874h-3.56V38.19h11.547a1.19 1.19 0 0 1 1.201 1.178v2.506H74.73a1.19 1.19 0 0 0-1.201 1.178v10.726h-4.33zM21.626 71.945V57.153h4.33v11.151c0 .44.364.796.812.796h5.147l.584 3.641H22.437a.803.803 0 0 1-.811-.796m31.688.796l-5.968-13.958c-.33-.775.249-1.63 1.105-1.63h2.8l3.18 8.72c.03.092.09.314.18.666.09.351.208.825.352 1.422.116-.476.225-.906.326-1.289a14.5 14.5 0 0 1 .228-.799l3.159-8.72h4.602L56.922 72.02a1.2 1.2 0 0 1-1.105.721h-2.503zm10.704 0V57.153h8.948a.78.78 0 0 1 .788.773v2.645H69.03a.781.781 0 0 0-.789.773v1.931h5.2v2.57a.78.78 0 0 1-.789.774h-4.41v1.856a.78.78 0 0 0 .788.773h4.725v3.493h-9.736zm-23.727-4.276c-1.918 0-3.472-1.525-3.472-3.406 0-1.881 1.554-3.406 3.472-3.406s3.472 1.525 3.472 3.406c0 1.88-1.554 3.406-3.472 3.406m0-11.312c-4.451 0-8.06 3.54-8.06 7.906s3.609 7.906 8.06 7.906c4.45 0 8.06-3.54 8.06-7.906 0-4.367-3.61-7.906-8.06-7.906M23.887 45.546v2.134l-1.335-1.77a.227.227 0 0 1 .187-.364h1.148z"/><path fill="#DC3B74" d="M64.352 57.153v1.95l-1.47-1.95zM28.269 42.31a.86.86 0 0 1 .868-.851c.948 0 1.623.165 2.024.495.402.33.602.885.602 1.666 0 .667-.215 1.157-.645 1.47-.431.312-1.113.468-2.046.468h-.803V42.31zm3.647 11.468h4.894l-4.21-6.1c1.158-.249 1.919-.933 2.523-1.689.604-.756.906-1.737.906-2.944 0-.795-.154-1.522-.461-2.183a4.219 4.219 0 0 0-1.319-1.629c-.507-.376-1.109-.644-1.807-.804-.699-.16-1.934-.24-3.707-.24h-3.658a.86.86 0 0 0-.868.852v14.737h4.06v-5.79h.185l3.462 5.79z"/></g></svg>