<svg xmlns="http://www.w3.org/2000/svg" width="130" height="31" viewBox="0 0 130 31">
    <g fill="none" fill-rule="evenodd">
        <path fill="#006e43" d="M24.117 4.273H126.08c1.105 0 2 .895 2 2 0 .271-.055.54-.163.79l-6.813 15.85c-.474 1.1-1.557 1.814-2.756 1.814H24.117V4.273z" transform="translate(1 1)"/>
        <text fill="#FFF" font-family="Montserrat-Regular, Montserrat" font-size="13" transform="translate(1 1)">
            <tspan x="34" y="19">ĐỘC QUYỀN</tspan>
        </text>
        <path fill="#DC3B74" stroke="#FFF" stroke-width=".5" d="M14.411 29h0c7.96 0 14.412-6.452 14.412-14.411v-.178C28.823 6.452 22.37 0 14.41 0h0C6.452 0 0 6.452 0 14.411v.178C0 22.548 6.452 29 14.411 29z" transform="translate(1 1)"/>
        <g>
            <path fill="#FFFFFE" d="M10.665 7.242c-2.935 0-5.597-.347-7.913-1.031-1.318-.39-1.684-.422-1.946-.422l-.104.001-.113.002h-.06c-.155-.004-.3-.082-.388-.21-.087-.127-.109-.29-.057-.435.082-.234.167-.566.253-.986C.827 1.738 1.829.237 5.298.237c1.122 0 2.502.15 4.22.458 1.7.306 3.269.46 4.66.46 3.03 0 4.462-.73 4.937-1.045.08-.053.171-.08.265-.08.196 0 .37.119.442.303.377.96.88 2.797.023 4.315-.643 1.14-1.922 1.876-3.801 2.186-.742.123-2.752.408-5.38.408" transform="translate(1 1) translate(4.239 5.8)"/>
            <path fill="#DC3B74" d="M16.006 6.602c-2.483.41-8.152.87-13.188-.617C1.073 5.469.94 5.564.534 5.555c-.17-.003-.286-.17-.23-.33.072-.202.161-.52.262-1.017C1.221.978 2.702-.29 9.476.927c6.373 1.145 9.022-.127 9.768-.62.13-.086.303-.033.36.112.449 1.145 1.783 5.294-3.598 6.183" transform="translate(1 1) translate(4.239 5.8)"/>
            <path fill="#FFFFFE" d="M4.365 3.815c0 .181-.092.322-.276.421-.15.081-.331.122-.541.122-.299 0-.548-.092-.746-.277-.199-.185-.298-.418-.298-.699 0-.238.102-.448.304-.627.203-.18.433-.27.69-.27.184 0 .342.041.474.126.15.094.226.224.226.389 0 .084-.022.153-.068.206-.046.06-.114.09-.2.09l-.092-.008c0-.136-.02-.234-.06-.292-.05-.075-.14-.113-.272-.113-.114 0-.215.05-.302.149-.086.1-.13.205-.13.315 0 .228.062.392.185.492.114.097.294.146.54.146.232 0 .39-.105.474-.315.062.015.092.064.092.145M6.76 3.583c0 .244-.12.44-.357.586-.19.12-.387.178-.591.178-.318 0-.59-.068-.813-.205-.283-.173-.424-.425-.424-.756 0-.283.119-.503.357-.66.21-.138.472-.207.788-.207.196 0 .373.04.533.115.196.095.293.225.293.39 0 .213-.067.32-.201.32-.052 0-.095-.018-.132-.054-.039-.035-.058-.077-.058-.124 0-.024.006-.045.018-.063-.095-.032-.195-.047-.297-.047-.373 0-.558.15-.558.452 0 .286.187.43.56.43.15 0 .277-.054.383-.16.106-.106.16-.23.16-.372.103-.044.177-.137.221-.28.079.074.118.226.118.457M9.161 3.465c0 .179-.045.34-.137.484-.073.118-.192.244-.357.378-.03.026-.059.04-.083.04-.026 0-.082-.03-.169-.087.177-.205.264-.442.264-.713 0-.149-.048-.281-.146-.397-.106-.124-.237-.185-.394-.185-.098 0-.2.035-.306.106.044.152.067.316.067.492 0 .257-.043.494-.13.713-.025.06-.056.09-.092.09-.017 0-.035-.012-.055-.035-.129-.147-.26-.217-.394-.209l-.117.008c-.027.005-.043-.007-.046-.036-.003-.028-.007-.045-.013-.047.185-.296.277-.591.277-.885 0-.208-.04-.391-.122-.552.006-.016.035-.05.088-.104.053-.053.08-.083.08-.089l.126.075c.056.034.112.091.168.17.209-.108.41-.163.603-.163.255 0 .47.1.646.3.162.187.242.402.242.646M11.225 3.815c0 .181-.093.322-.277.421-.151.081-.331.122-.54.122-.3 0-.548-.092-.747-.277-.199-.185-.298-.418-.298-.699 0-.238.101-.448.304-.627.203-.18.432-.27.69-.27.184 0 .342.041.473.126.15.094.227.224.227.389 0 .084-.022.153-.067.206-.047.06-.115.09-.2.09l-.093-.008c0-.136-.02-.234-.06-.292-.05-.075-.14-.113-.272-.113-.114 0-.215.05-.302.149-.086.1-.13.205-.13.315 0 .228.062.392.185.492.115.097.295.146.541.146.231 0 .39-.105.473-.315.062.015.093.064.093.145M13.523 3.422c0 .289-.09.52-.27.696-.181.176-.424.264-.729.264-.704 0-1.056-.27-1.056-.815 0-.102.014-.228.042-.378.061-.33.092-.54.092-.63.173.016.43.045.772.087-.098.247-.153.386-.164.418-.059.173-.088.314-.088.425 0 .15.049.273.147.371.099.1.226.148.385.148.118 0 .224-.034.32-.102.098-.068.146-.156.146-.264 0-.138-.02-.303-.059-.491l-.107-.54c.034-.055.103-.083.207-.083.075 0 .147.01.215.031l.092.418c.036.178.055.327.055.445M15.954 3.465c0 .179-.046.34-.138.484-.073.118-.192.244-.357.378-.03.026-.058.04-.084.04-.025 0-.081-.03-.167-.087.176-.205.264-.442.264-.713 0-.149-.049-.281-.147-.397-.106-.124-.237-.185-.394-.185-.098 0-.2.035-.306.106.045.152.067.316.067.492 0 .257-.044.494-.13.713-.025.06-.057.09-.092.09-.017 0-.035-.012-.055-.035-.129-.147-.26-.217-.394-.209l-.118.008c-.027.005-.042-.007-.045-.036-.003-.028-.007-.045-.013-.047.185-.296.277-.591.277-.885 0-.208-.04-.391-.122-.552.006-.016.035-.05.089-.104.052-.053.079-.083.079-.089l.126.075c.056.034.112.091.167.17.21-.108.411-.163.604-.163.254 0 .47.1.646.3.162.187.243.402.243.646M18.264 2.563c0 .087-.062.13-.185.13 0-.113-.047-.169-.142-.169-.07 0-.116.046-.138.142-.031-.047-.073-.087-.126-.118.053-.168.16-.253.319-.253.069 0 .132.03.188.085.056.057.084.118.084.183m-.432.386c0 .063-.02.12-.059.17-.04.05-.09.074-.155.074-.072 0-.145-.018-.22-.054-.074-.037-.125-.056-.153-.056-.109 0-.21.036-.306.106-.103.077-.155.164-.155.264 0 .058.025.106.072.142.047.036.102.055.163.055.1 0 .195-.034.285-.102.09-.069.134-.149.134-.24 0-.026-.003-.047-.012-.063.067.024.123.035.171.035.066 0 .12-.02.168-.062 0 .214-.11.392-.33.53-.197.126-.414.19-.65.19-.15 0-.27-.055-.366-.163-.086-.098-.13-.22-.13-.365 0-.21.08-.406.24-.586.186-.213.427-.32.72-.32.16 0 .294.036.403.107.12.08.18.194.18.338m.298 1.586c0 .237-.133.425-.398.564-.218.113-.464.17-.738.17-.207 0-.392-.043-.554-.127-.198-.1-.297-.24-.297-.421 0-.084.047-.126.142-.126.072.186.27.279.596.279.148 0 .288-.018.419-.055.187-.055.282-.134.282-.24 0-.079-.066-.13-.194-.153-.05-.009-.145-.012-.285-.012h-.125c-.3 0-.45-.088-.45-.264 0-.066.02-.117.059-.154.04.019.112.027.218.027h.063c-.017.022-.025.04-.025.058 0 .03.046.045.138.045.05 0 .125-.008.223-.025.097-.017.168-.026.213-.026.19 0 .348.032.473.095.16.078.24.2.24.365M13.775 4.995c0 .016-.005.025-.011.028l-.119.065c-.004.002-.008.002-.011.002-.012 0-.022-.007-.03-.023-.007-.013-.01-.026-.01-.04 0-.03.012-.054.035-.073.022-.016.048-.025.078-.025.018 0 .034.007.048.02.013.013.02.029.02.046M14.365 4.913c0 .05-.025.089-.077.117-.042.023-.092.034-.15.034-.083 0-.153-.025-.207-.077-.055-.051-.082-.117-.082-.194 0-.067.027-.124.083-.175.057-.05.12-.075.192-.075.052 0 .096.012.132.035.042.026.063.062.063.109 0 .023-.007.041-.02.056-.013.018-.03.026-.055.026l-.026-.002c0-.039-.005-.065-.016-.082-.014-.02-.04-.03-.076-.03-.031 0-.06.012-.084.04-.024.029-.035.057-.035.088 0 .063.017.109.05.136.033.027.082.041.15.041.065 0 .11-.03.133-.087.016.004.025.018.025.04M15.03 4.849c0 .067-.033.121-.099.162-.053.033-.108.05-.164.05-.088 0-.164-.02-.226-.058-.079-.047-.117-.117-.117-.21 0-.078.033-.139.099-.183.058-.037.13-.057.218-.057.054 0 .103.011.148.032.055.025.081.062.081.108 0 .06-.018.09-.056.09-.013 0-.026-.006-.036-.016-.01-.01-.016-.022-.016-.035 0-.007.002-.012.005-.017-.027-.009-.054-.013-.083-.013-.103 0-.154.041-.154.126 0 .08.052.118.155.118.042 0 .077-.014.107-.044.028-.029.044-.064.044-.102.029-.013.05-.039.061-.079.022.021.033.063.033.128M16.006 4.816c0 .035-.014.081-.043.14-.029.058-.043.095-.043.111-.044 0-.075-.015-.09-.046 0-.006.012-.037.036-.097.012-.028.017-.055.017-.079 0-.04-.016-.076-.049-.111-.032-.034-.07-.052-.11-.052-.023 0-.046.006-.067.019.02.037.03.078.03.123 0 .078-.03.153-.09.227-.012.01-.024.016-.034.016-.012 0-.026-.007-.04-.023.036-.04.054-.096.054-.167 0-.047-.014-.09-.044-.13-.033-.043-.073-.065-.12-.065-.027 0-.056.01-.085.03.012.043.019.09.019.139 0 .066-.013.132-.037.195-.005.017-.014.026-.024.026-.006 0-.01-.004-.016-.01-.036-.042-.072-.06-.11-.059l-.033.003c-.007.002-.011-.002-.012-.01l-.002-.012c.05-.083.076-.165.076-.247 0-.058-.012-.11-.035-.153.002-.005.01-.015.025-.029.015-.015.022-.023.022-.025l.035.021c.016.01.03.026.046.047.059-.03.115-.045.168-.045.054 0 .1.021.14.062.017-.018.043-.034.078-.046.032-.01.062-.016.09-.016.073 0 .133.028.18.081.045.052.068.113.068.182M3.532 15.898c-.129.076-.253.115-.374.115-.18 0-.331-.062-.457-.187-.125-.124-.187-.277-.187-.457 0-.126.03-.237.09-.332.06-.096.191-.219.396-.368l.137-.099.798.98c-.14.155-.275.27-.403.348m.912-.61c.048-.069.097-.143.145-.22l-.036-.045c-.048-.063-.143-.06-.187.006l-.07.101c-.061.085-.125.168-.19.248l-.752-.936c.209-.131.357-.258.444-.38l-.095-.12c-.028-.036-.083-.033-.107.005-.053.083-.134.162-.242.237l-.136.095-.17-.233c-.045-.06-.08-.12-.105-.182-.025-.062-.037-.12-.037-.174 0-.104.037-.188.11-.254.058-.051.128-.083.212-.094l-.09-.111c-.038-.048-.103-.065-.158-.04-.051.023-.099.053-.142.089-.124.104-.186.235-.186.393 0 .088.015.172.046.251.032.08.095.184.191.31l.117.156c-.267.168-.46.33-.578.487-.12.158-.179.326-.179.505 0 .249.084.453.251.614.168.16.383.241.645.241.171 0 .333-.041.485-.125.152-.083.301-.21.447-.382l.38.45h.108c.076 0 .117-.09.068-.147l-.4-.471c.072-.085.143-.176.21-.274M3.36 12.753v-2.588c0-.13-.105-.235-.234-.235h-.877V9.29c0-.13.105-.235.234-.235h2.7v.874h-.822v2.823H3.36zM9.002 9.056h.764v1.798c0 .264.007.454.02.57.014.114.036.21.068.288.039.095.106.167.2.216.096.05.212.075.35.075.137 0 .253-.025.347-.075.095-.05.162-.121.202-.216.032-.077.054-.174.068-.289.013-.115.02-.305.02-.57V9.293c0-.13.105-.236.235-.236h.761v1.954c0 .406-.024.705-.072.898-.049.193-.13.357-.246.494-.126.15-.298.262-.517.337-.22.074-.486.112-.798.112-.315 0-.581-.038-.8-.112-.218-.075-.39-.188-.518-.337-.114-.137-.195-.301-.244-.494-.05-.193-.075-.492-.075-.898V9.292c0-.13.106-.236.235-.236M12.594 11.9c.074-.124.242-.149.349-.053.082.074.163.134.244.18.144.085.289.127.432.127.134 0 .244-.036.33-.109.087-.072.13-.164.13-.275 0-.123-.038-.217-.112-.284-.074-.066-.243-.135-.506-.205-.36-.098-.614-.225-.763-.382-.148-.156-.223-.371-.223-.644 0-.353.118-.641.353-.864.235-.223.54-.335.914-.335.203 0 .395.027.576.082.182.055.354.138.516.249l-.201.465c-.055.127-.208.175-.327.106-.045-.026-.09-.049-.136-.067-.12-.05-.238-.075-.355-.075-.12 0-.218.03-.293.087-.076.058-.113.133-.113.224 0 .092.033.166.099.222.066.055.193.108.382.159l.046.012c.408.112.676.234.805.367.087.09.153.2.198.327.046.127.068.268.068.422 0 .393-.128.708-.384.946s-.597.357-1.024.357c-.256 0-.489-.043-.699-.131-.21-.087-.412-.225-.606-.412l.3-.497zM15.998 12.753V9.93h-.823v-.874h2.67c.153 0 .278.125.278.28v.594h-.846c-.153 0-.277.125-.277.28v2.543h-1.002zM5 17.06v-3.507H6v2.644c0 .104.084.189.188.189h1.19l.135.863H5.187c-.103 0-.187-.084-.187-.188M12.326 17.25l-1.38-3.31c-.076-.184.058-.387.256-.387h.647l.735 2.068c.007.022.02.074.042.158.02.083.048.195.081.337.027-.113.052-.215.076-.306.023-.09.04-.154.052-.19l.73-2.067h1.065l-1.47 3.525c-.043.104-.144.171-.255.171h-.579zM14.8 17.25v-3.697h2.07c.1 0 .182.082.182.183v.627h-1.093c-.1 0-.182.082-.182.184v.458h1.202v.61c0 .1-.081.182-.182.182h-1.02v.44c0 .102.082.184.182.184h1.093v.828H14.8zM9.315 16.235c-.443 0-.803-.361-.803-.807 0-.447.36-.808.803-.808.444 0 .803.361.803.808 0 .446-.36.807-.803.807m0-2.682c-1.029 0-1.863.84-1.863 1.875 0 1.035.834 1.874 1.863 1.874 1.03 0 1.863-.84 1.863-1.874 0-1.036-.834-1.875-1.863-1.875M5.523 10.8v.507l-.309-.42c-.026-.036 0-.086.043-.086h.266z" transform="translate(1 1) translate(4.239 5.8)"/>
            <path fill="#FFFFFE" d="M14.878 13.553L14.878 14.015 14.538 13.553zM6.536 10.033c0-.111.09-.202.2-.202.22 0 .376.04.468.118.093.078.14.21.14.395 0 .158-.05.274-.15.348-.1.074-.257.111-.473.111h-.185v-.77zm.843 2.72H8.51l-.973-1.447c.268-.059.444-.221.583-.4.14-.18.21-.412.21-.699 0-.188-.036-.36-.107-.517-.071-.157-.173-.286-.305-.387-.117-.089-.256-.152-.418-.19-.161-.038-.447-.057-.857-.057h-.845c-.111 0-.201.09-.201.202v3.494h.939V11.38h.043l.8 1.373z" transform="translate(1 1) translate(4.239 5.8)"/>
        </g>
    </g>
</svg>
