<svg xmlns="http://www.w3.org/2000/svg" width="21" height="26" viewBox="0 0 21 26">
    <path fill="none" fill-rule="nonzero" stroke="#FFF" d="M10.161 1.006C5.43 1.173 1.5 4.894 1.045 9.642c-.093.95-.039 1.87.127 2.75 0 0 .015.104.064.301.146.66.366 1.3.64 1.9.951 2.273 3.154 6.077 8.095 10.215a.82.82 0 0 0 1.055 0c4.94-4.133 7.143-7.937 8.1-10.22.278-.6.493-1.236.64-1.9A9.698 9.698 0 0 0 20 10.572c0-5.403-4.438-9.758-9.839-9.566zm.337 14.33c-2.549 0-4.614-2.082-4.614-4.65 0-2.57 2.065-4.65 4.614-4.65s4.614 2.08 4.614 4.65c0 2.568-2.065 4.65-4.614 4.65z"/>
</svg>
