<?xml version="1.0" encoding="UTF-8"?>
<svg width="16px" height="20px" viewBox="0 0 16 20" version="1.1" xmlns="http://www.w3.org/2000/svg" xmlns:xlink="http://www.w3.org/1999/xlink">
    <!-- Generator: Sketch 54.1 (76490) - https://sketchapp.com -->
    <title>Group 10</title>
    <desc>Created with Sketch.</desc>
    <g id="Page-1" stroke="none" stroke-width="1" fill="none" fill-rule="evenodd">
        <g id="CCHome" transform="translate(-336.000000, -511.000000)" fill-rule="nonzero">
            <g id="Group-10" transform="translate(336.000000, 511.000000)">
                <path d="M13.0063103,7.69494166 C9.51962915,3.89589433 8.72759363,0.941176471 8.72759363,0.941176471 C8.72759363,0.941176471 8.12372923,1.20702787 7.44397061,1.81613544 L6.58823529,11.4939494 L7.44397061,19.7647059 L7.44401072,19.7647059 C11.6495609,19.7646663 15.0588235,16.4013177 15.0588235,12.2524451 C15.0587834,10.5386968 14.0886452,8.87425655 13.0063103,7.69494166 Z" id="Path" fill="#FF6200"></path>
                <path d="M7.04271082,2.59277355 C6.55754485,3.45019254 6.44327003,4.41686376 6.44791063,5.15868279 C6.45237275,5.87830441 5.87863375,6.49935853 5.08004869,6.6405072 C4.52210559,6.73911413 3.94533235,6.58479684 3.54298327,6.22928358 L2.75907857,5.53663002 C2.75907857,5.53663002 1.59696484,6.95249306 1.39782056,7.21886188 C0.503299978,8.41531365 -0.0127884657,9.85203358 0.000240915705,11.3959555 C0.0349561854,15.5192707 3.80392787,18.8235294 8.47058824,18.8235294 L8.47058824,0.941176471 C7.97596257,1.33812752 7.44528301,1.88135274 7.04271082,2.59277355 Z" id="Path" fill="#FD7D21"></path>
                <path d="M13.8417908,7.00566176 C12.1533431,5.15646507 11.1499367,3.52861765 10.6054307,2.48861581 C10.0157275,1.36214338 9.82248175,0.663623162 9.82100243,0.658064338 L9.64546959,6.19948537e-13 L9.01854988,0.277284926 C8.98285158,0.293073529 8.55369343,0.487053309 8.01066667,0.904119485 L7.59540633,1.62962316 L8.01066667,2.48340441 C8.33518248,2.12242831 8.66989781,1.85259375 8.93909489,1.66579412 C9.37829684,2.77354412 10.4916399,5.06211949 12.9760389,7.78300919 C13.5294988,8.38915257 14.8168175,9.99789154 14.8168175,11.8401397 C14.8168175,15.561579 11.7635815,18.5892077 8.0107056,18.5892077 L8.01066667,18.5892077 L7.59540633,19.3355184 L8.01066667,19.747296 L8.0107056,19.747296 C12.4075912,19.7472574 15.9847007,16.2001489 15.9847007,11.8401397 C15.9847397,10.2592721 15.2036594,8.49720221 13.8417908,7.00566176 Z" id="Path" fill="#FFB62D"></path>
                <path d="M3.2116399,16.6349724 C1.93093917,15.3747408 1.21821898,13.6901471 1.20471046,11.8915974 C1.19458881,10.545204 1.58279319,9.24281801 2.32731873,8.12530147 C2.41821898,7.98887868 2.78287105,7.48441544 3.09940633,7.04909007 L3.29868613,7.24669853 C3.78888564,7.73278676 4.48720195,7.94251654 5.16714355,7.80767647 C6.13601946,7.61551103 6.83534793,6.76524265 6.82993674,5.78584743 C6.82654988,5.17974265 6.90316302,4.29739522 7.28720195,3.53568199 C7.49551338,3.12255331 7.74980049,2.77362132 8.01066667,2.48344301 L8.01066667,0.904119485 C7.43871533,1.34345956 6.74047689,2.03036029 6.24260827,3.01774632 C5.75540633,3.98401654 5.65796594,5.05984191 5.66205353,5.79213971 C5.66442822,6.21831618 5.35992214,6.58836397 4.9380438,6.67201654 C4.64225791,6.73061581 4.3379854,6.63943566 4.12449635,6.42773713 L2.95672993,5.26976471 L2.55501703,5.81904596 C2.5133236,5.8760625 1.53160097,7.21863419 1.35287591,7.48688603 C0.480116788,8.79695404 0.0250316302,10.3230441 0.0368272506,11.9001673 C0.0526326034,14.0065368 0.887980535,15.9799577 2.38898297,17.4569835 C3.88986861,18.9338934 5.88636496,19.7472574 8.01066667,19.7472574 L8.01066667,18.5891691 C6.1966326,18.5891691 4.4923017,17.8951654 3.2116399,16.6349724 Z" id="Path" fill="#FDCB02"></path>
            </g>
        </g>
    </g>
</svg>