<?xml version="1.0" encoding="UTF-8"?>
<svg width="14px" height="22px" viewBox="0 0 14 22" version="1.1" xmlns="http://www.w3.org/2000/svg" xmlns:xlink="http://www.w3.org/1999/xlink">
    <!-- Generator: Sketch 54.1 (76490) - https://sketchapp.com -->
    <title>lightning</title>
    <desc>Created with Sketch.</desc>
    <g id="Page-1" stroke="none" stroke-width="1" fill="none" fill-rule="evenodd">
        <g id="CCHome" transform="translate(-337.000000, -476.000000)" fill-rule="nonzero">
            <g id="lightning" transform="translate(337.000000, 476.000000)">
                <path d="M5.13058784,21.8846682 L13.6400151,7.27339741 C13.832663,6.94258089 13.5594399,6.53549481 13.1793147,6.58705733 L7.5190599,7.35426463 L8.87147317,0.273785564 C8.91706062,0.0350940738 8.60846203,-0.101675506 8.46135849,0.0919847189 L0.0947259797,11.1053089 C-0.148981589,11.4260708 0.109074392,11.8821842 0.510399056,11.8400748 L6.75079506,11.185016 L4.70500445,21.7255978 C4.65566832,21.979844 5.00015948,22.1086214 5.13058784,21.8846682 Z" id="Path" fill="#FFDC64"></path>
                <path d="M2.79604713,10.3283359 C2.64024471,10.340802 2.53676303,10.170361 2.61958274,10.037748 L8.8559322,0.0526118495 C8.76314664,-0.0208518876 8.6170953,-0.0255803902 8.52864832,0.0912566122 L0.187656023,11.1090977 C-0.0553046842,11.4300341 0.201960464,11.8862916 0.602055236,11.8441649 L6.82332705,11.1888375 L4.78380593,21.7337423 C4.75631391,21.8759843 4.85219232,21.9760566 4.96426525,22 L8.45914506,10.9332834 C8.62298031,10.4145666 8.209655,9.89490419 7.66776156,9.93832045 L2.79604713,10.3283359 Z" id="Path" fill="#FFC850"></path>
            </g>
        </g>
    </g>
</svg>