<svg xmlns="http://www.w3.org/2000/svg" xmlns:xlink="http://www.w3.org/1999/xlink" width="72" height="72" viewBox="0 0 72 72"><defs><circle id="b" cx="24" cy="24" r="24"/><filter id="a" width="187.5%" height="187.5%" x="-43.8%" y="-31.2%" filterUnits="objectBoundingBox"><feOffset dy="6" in="SourceAlpha" result="shadowOffsetOuter1"/><feGaussianBlur in="shadowOffsetOuter1" result="shadowBlurOuter1" stdDeviation="6"/><feColorMatrix in="shadowBlurOuter1" values="0 0 0 0 0 0 0 0 0 0 0 0 0 0 0 0 0 0 0.1 0"/></filter></defs><g fill="none" fill-rule="evenodd"><g transform="translate(12 6)"><use fill="#000" filter="url(#a)" xlink:href="#b"/><use fill="#ffc107" xlink:href="#b"/></g><path fill="#FFF" fill-rule="nonzero" d="M37.39 38.352l-.006-2.257v-9.76l3.738 3.787a.967.967 0 0 0 1.378 0l.58-.59a.984.984 0 0 0 .284-.695c0-.263-.1-.51-.283-.696l-6.393-6.49a.953.953 0 0 0-.687-.287.953.953 0 0 0-.688.287l-6.394 6.49a.985.985 0 0 0-.283.696c0 .263.1.51.283.695l.58.59a.953.953 0 0 0 .686.287c.26 0 .49-.102.672-.287l3.759-3.83v12.073c0 .543.46.999.995.999h.82c.535 0 .96-.47.96-1.012z"/></g></svg>