<svg id="Capa_1" enable-background="new 0 0 512 512" height="512" viewBox="0 0 512 512" width="512" xmlns="http://www.w3.org/2000/svg" xmlns:xlink="http://www.w3.org/1999/xlink"><linearGradient id="SVGID_1_" gradientUnits="userSpaceOnUse" x1="256" x2="256" y1="421" y2="91"><stop offset="0" stop-color="#00b59c"/><stop offset="1" stop-color="#9cffac"/></linearGradient><g><g><path d="m225 151h-120c-8.284 0-15 6.716-15 15v120c0 8.284 6.716 15 15 15h120c8.284 0 15-6.716 15-15v-120c0-8.284-6.716-15-15-15zm-15 120h-90v-90h30v15c0 8.284 6.716 15 15 15s15-6.716 15-15v-15h30zm299.862-22.717-90-150c-2.711-4.518-7.593-7.283-12.862-7.283h-332c-41.355 0-75 33.645-75 75v210c0 8.284 6.716 15 15 15h47.58c6.192 17.459 22.865 30 42.42 30s36.228-12.541 42.42-30h217.16c6.192 17.459 22.865 30 42.42 30s36.228-12.541 42.42-30h47.58c8.284 0 15-6.716 15-15v-120c0-2.782-.812-5.508-2.138-7.717zm-75.355-67.283 36 60h-139.507v-60zm-329.507 210c-8.271 0-15-6.729-15-15s6.729-15 15-15 15 6.729 15 15-6.729 15-15 15zm302 0c-8.271 0-15-6.729-15-15s6.729-15 15-15 15 6.729 15 15-6.729 15-15 15zm75-90h-15c-8.284 0-15 6.716-15 15s6.716 15 15 15h15v30h-32.58c-6.192-17.459-22.865-30-42.42-30s-36.228 12.541-42.42 30h-217.16c-6.192-17.459-22.865-30-42.42-30s-36.228 12.541-42.42 30h-32.58v-195c0-24.813 20.187-45 45-45h323.507l18 30h-100.507c-8.284 0-15 6.716-15 15v90c0 8.284 6.716 15 15 15h166z" fill="url(#SVGID_1_)"/></g></g></svg>