<?xml version="1.0" encoding="iso-8859-1"?>
<!-- Generator: Adobe Illustrator 19.0.0, SVG Export Plug-In . SVG Version: 6.00 Build 0)  -->
<svg version="1.1" id="Capa_1" xmlns="http://www.w3.org/2000/svg" xmlns:xlink="http://www.w3.org/1999/xlink" x="0px" y="0px"
	 viewBox="0 0 512 512" style="enable-background:new 0 0 512 512;" xml:space="preserve">
<path style="fill:#EDEBED;" d="M339.502,397.934H57.632c-9.157,0-16.581-7.423-16.581-16.581V16.581C41.051,7.423,48.474,0,57.632,0
	h281.87c9.157,0,16.581,7.423,16.581,16.581v364.773C356.082,390.511,348.659,397.934,339.502,397.934z"/>
<path style="fill:#5D5360;" d="M298.01,99.484H165.365c-4.582,0-8.29-3.712-8.29-8.29s3.708-8.29,8.29-8.29H298.01
	c4.582,0,8.29,3.712,8.29,8.29S302.592,99.484,298.01,99.484z"/>
<path style="fill:#867E88;" d="M181.946,132.645h-16.581c-4.582,0-8.29-3.712-8.29-8.29c0-4.578,3.708-8.29,8.29-8.29h16.581
	c4.582,0,8.29,3.712,8.29,8.29C190.236,128.933,186.528,132.645,181.946,132.645z"/>
<path style="fill:#9C969E;" d="M256.558,132.645h-41.451c-4.582,0-8.29-3.712-8.29-8.29c0-4.578,3.708-8.29,8.29-8.29h41.451
	c4.582,0,8.29,3.712,8.29,8.29C264.849,128.933,261.141,132.645,256.558,132.645z"/>
<path style="fill:#5D5360;" d="M298.01,190.677H165.365c-4.582,0-8.29-3.712-8.29-8.29c0-4.578,3.708-8.29,8.29-8.29H298.01
	c4.582,0,8.29,3.712,8.29,8.29S302.592,190.677,298.01,190.677z"/>
<path style="fill:#867E88;" d="M181.946,223.838h-16.581c-4.582,0-8.29-3.712-8.29-8.29c0-4.578,3.708-8.29,8.29-8.29h16.581
	c4.582,0,8.29,3.712,8.29,8.29C190.236,220.126,186.528,223.838,181.946,223.838z"/>
<path style="fill:#9C969E;" d="M256.558,223.838h-41.451c-4.582,0-8.29-3.712-8.29-8.29c0-4.578,3.708-8.29,8.29-8.29h41.451
	c4.582,0,8.29,3.712,8.29,8.29C264.849,220.126,261.141,223.838,256.558,223.838z"/>
<path style="fill:#5D5360;" d="M298.01,281.87H165.365c-4.582,0-8.29-3.712-8.29-8.29s3.708-8.29,8.29-8.29H298.01
	c4.582,0,8.29,3.712,8.29,8.29S302.592,281.87,298.01,281.87z"/>
<path style="fill:#867E88;" d="M181.946,315.031h-16.581c-4.582,0-8.29-3.712-8.29-8.29s3.708-8.29,8.29-8.29h16.581
	c4.582,0,8.29,3.712,8.29,8.29S186.528,315.031,181.946,315.031z"/>
<path style="fill:#9C969E;" d="M256.558,315.031h-41.451c-4.582,0-8.29-3.712-8.29-8.29s3.708-8.29,8.29-8.29h41.451
	c4.582,0,8.29,3.712,8.29,8.29S261.141,315.031,256.558,315.031z"/>
<g>
	<circle style="fill:#E6646E;" cx="115.669" cy="107.77" r="20.726"/>
	<circle style="fill:#E6646E;" cx="115.669" cy="290.16" r="20.726"/>
	<circle style="fill:#E6646E;" cx="115.669" cy="198.97" r="20.726"/>
	<path style="fill:#E6646E;" d="M403.249,306.741c-15.065,0-28.979,4.923-40.224,13.247c-4.541,3.361-10.584,3.361-15.125,0
		c-11.246-8.323-25.159-13.247-40.224-13.247c-37.389,0-67.698,30.309-67.698,67.698c0,49.472,55.459,108.49,108.165,135.785
		c4.572,2.368,10.068,2.368,14.64,0c52.706-27.295,108.165-86.313,108.165-135.785C470.947,337.051,440.638,306.741,403.249,306.741
		z"/>
</g>
<path style="fill:#DC4655;" d="M299.209,370.099c0-23.806,9.569-45.361,25.043-61.089c-5.329-1.349-10.829-2.269-16.577-2.269
	c-37.389,0-67.698,30.309-67.698,67.698c0,49.472,55.459,108.489,108.166,135.785c4.572,2.368,10.068,2.368,14.64,0
	c4.661-2.414,9.337-5.156,14.001-8.037C333.321,463.975,299.209,414.11,299.209,370.099z"/>
<g>
</g>
<g>
</g>
<g>
</g>
<g>
</g>
<g>
</g>
<g>
</g>
<g>
</g>
<g>
</g>
<g>
</g>
<g>
</g>
<g>
</g>
<g>
</g>
<g>
</g>
<g>
</g>
<g>
</g>
</svg>
