<svg id="icons" enable-background="new 0 0 64 64" height="512" viewBox="0 0 64 64" width="512" xmlns="http://www.w3.org/2000/svg"><path d="m54.5.001h-45c-1.654 0-3 1.346-3 3v2 57.998c0 .553.447 1 1 1h49c.553 0 1-.447 1-1v-57.998-2c0-1.654-1.346-3-3-3zm-46 6h47v55.998h-47zm1-4h1.02c-.552 0-.994.447-.994 1s.452 1 1.005 1c.552 0 1-.447 1-1s-.448-1-1-1h2.989c-.552 0-.994.447-.994 1s.452 1 1.005 1c.552 0 1-.447 1-1s-.448-1-1-1h2.991c-.552 0-.994.447-.994 1s.452 1 1.005 1c.552 0 1-.447 1-1s-.448-1-1-1h37.967c.552 0 1 .448 1 1v1h-38.968-3.002-3-2.03v-1c0-.552.448-1 1-1z"/><path d="m51.5 42.996h-39c-.553 0-1 .447-1 1s.447 1 1 1h39c.553 0 1-.447 1-1s-.447-1-1-1z"/><path d="m12.5 26h39c.553 0 1-.447 1-1s-.447-1-1-1h-39c-.553 0-1 .447-1 1s.447 1 1 1z"/><path d="m39.51 52.999h-11.005c-.553 0-1 .447-1 1s.447 1 1 1h11.005c.553 0 1-.447 1-1s-.447-1-1-1z"/><path d="m35.506 56.999h-7.001c-.553 0-1 .447-1 1s.447 1 1 1h7.001c.553 0 1-.447 1-1s-.447-1-1-1z"/><path d="m50.517 49.997h-22.012c-.553 0-1 .447-1 1s.447 1 1 1h22.012c.553 0 1-.447 1-1s-.448-1-1-1z"/><path d="m50.517 46.999h-22.012c-.553 0-1 .447-1 1s.447 1 1 1h22.012c.553 0 1-.447 1-1s-.448-1-1-1z"/><path d="m25.451 50.679-1-3c-.004-.013-.014-.021-.019-.032-.026-.069-.067-.127-.106-.188-.033-.05-.059-.103-.099-.146-.042-.045-.095-.075-.145-.111-.055-.04-.104-.083-.164-.11-.051-.024-.108-.031-.164-.046-.07-.019-.139-.04-.214-.043-.013-.001-.024-.008-.038-.008h-10.002c-.014 0-.025.007-.038.008-.075.003-.144.024-.214.043-.056.015-.113.021-.164.046-.061.027-.109.07-.164.11-.05.036-.103.066-.145.111-.04.043-.066.097-.099.146-.039.061-.081.117-.106.187-.005.012-.015.02-.019.032l-1 3c-.017.051-.011.103-.019.154-.01.055-.033.104-.033.162v3.002c0 .553.447 1 1 1v4.002c0 .553.447 1 1 1h10.003c.553 0 1-.447 1-1v-4.002c.553 0 1-.447 1-1v-3.002c0-.058-.023-.107-.033-.163-.007-.05-.001-.102-.018-.152zm-11.951 2.318v-1.002h10.003v1.002zm.721-4.002h8.562l.334 1h-9.229zm8.282 9.004h-3.001v-.997c0-.553-.447-1-1-1s-1 .447-1 1v.997h-3.002v-3.002h8.003z"/><path d="m40.496 56.999c0-.553-.447-1-1-1h-1c-.012 0-.021.007-.034.007-.062.002-.12.023-.182.037-.069.016-.139.024-.202.054-.01.004-.02.003-.029.008-.045.022-.073.061-.113.088-.06.042-.12.079-.169.133-.044.047-.072.103-.106.157-.033.055-.07.104-.094.165-.025.068-.031.14-.042.212-.007.048-.028.09-.028.14 0 .011.006.02.006.03.002.066.024.13.04.196.016.065.024.131.052.19.004.01.003.021.008.03l.363.727c-.275.178-.469.474-.469.826 0 .553.447 1 1 1h1 .001c.002 0 .004-.001.006-.001.148-.001.286-.039.413-.098.009-.005.019-.002.027-.007.045-.022.073-.061.113-.088.06-.042.12-.079.169-.133.044-.047.072-.103.106-.157.033-.055.07-.104.094-.166.025-.067.031-.139.042-.211.007-.048.028-.09.028-.14 0-.011-.006-.02-.006-.03-.002-.066-.024-.13-.04-.195s-.023-.132-.052-.192c-.004-.009-.003-.02-.008-.029l-.363-.727c.276-.178.469-.473.469-.826z"/><path d="m39.51 34.001h-11.005c-.553 0-1 .447-1 1s.447 1 1 1h11.005c.553 0 1-.447 1-1s-.447-1-1-1z"/><path d="m28.505 38.001c-.553 0-1 .447-1 1s.447 1 1 1h7.001c.553 0 1-.447 1-1s-.447-1-1-1z"/><path d="m51.517 31.999c0-.553-.447-1-1-1h-22.012c-.553 0-1 .447-1 1s.447 1 1 1h22.012c.552 0 1-.447 1-1z"/><path d="m50.517 28.001h-22.012c-.553 0-1 .447-1 1s.447 1 1 1h22.012c.553 0 1-.447 1-1s-.448-1-1-1z"/><path d="m12.5 35.999v4.002c0 .553.447 1 1 1h10.003c.553 0 1-.447 1-1v-4.002c.553 0 1-.447 1-1v-3.002c0-.058-.023-.107-.033-.163-.008-.051-.002-.103-.019-.153l-1-3c-.004-.013-.014-.021-.019-.032-.026-.069-.067-.127-.106-.188-.033-.05-.059-.103-.099-.146-.042-.045-.095-.075-.145-.111-.055-.04-.104-.083-.164-.11-.051-.024-.108-.031-.164-.046-.07-.019-.139-.04-.214-.043-.013-.001-.024-.008-.038-.008h-10.002c-.014 0-.025.007-.038.008-.075.003-.144.024-.214.043-.056.015-.113.021-.164.046-.061.027-.109.07-.164.11-.05.036-.103.066-.145.111-.04.043-.066.097-.099.146-.039.061-.081.117-.106.187-.005.012-.015.02-.019.032l-1 3c-.017.051-.011.103-.019.154-.01.055-.033.104-.033.162v3.002c.001.554.448 1.001 1.001 1.001zm1.721-6.002h8.562l.334 1h-9.229zm-.721 4.002v-1.002h10.003v1.002zm9.003 5.002h-3.001v-.997c0-.553-.447-1-1-1s-1 .447-1 1v.997h-3.002v-3.002h8.003z"/><path d="m40.496 38.001c0-.553-.447-1-1-1h-1c-.011 0-.021.006-.031.006-.064.002-.127.024-.192.039-.066.016-.134.024-.194.053-.009.004-.02.003-.029.008-.045.022-.073.061-.113.088-.06.042-.12.079-.169.133-.044.047-.072.103-.106.157-.033.055-.07.104-.094.165-.025.068-.031.14-.042.212-.007.048-.028.09-.028.14 0 .011.006.02.006.03.002.066.024.13.04.196.016.065.024.131.052.19.004.01.003.021.008.03l.363.727c-.275.178-.469.474-.469.826 0 .553.447 1 1 1h1 .001c.002 0 .004-.001.006-.001.148-.001.286-.039.413-.098.009-.005.019-.002.027-.007.045-.022.073-.061.113-.088.06-.042.12-.079.169-.133.044-.047.072-.103.106-.157.033-.055.07-.104.094-.166.025-.067.031-.139.042-.211.007-.048.028-.09.028-.14 0-.011-.006-.02-.006-.03-.002-.066-.024-.13-.04-.195s-.023-.132-.052-.192c-.004-.009-.003-.02-.008-.029l-.363-.727c.275-.178.468-.473.468-.826z"/><path d="m28.505 17.003h11.005c.553 0 1-.447 1-1s-.447-1-1-1h-11.005c-.553 0-1 .447-1 1s.447 1 1 1z"/><path d="m28.505 21.003h7.001c.553 0 1-.447 1-1s-.447-1-1-1h-7.001c-.553 0-1 .447-1 1s.447 1 1 1z"/><path d="m28.505 14.001h22.012c.553 0 1-.447 1-1s-.447-1-1-1h-22.012c-.553 0-1 .447-1 1s.447 1 1 1z"/><path d="m28.505 11.003h22.012c.553 0 1-.447 1-1s-.447-1-1-1h-22.012c-.553 0-1 .447-1 1s.447 1 1 1z"/><path d="m12.5 17.001v4.002c0 .553.447 1 1 1h10.003c.553 0 1-.447 1-1v-4.002c.553 0 1-.447 1-1v-3.002c0-.058-.023-.107-.033-.163-.008-.051-.002-.103-.019-.153l-1-3c-.004-.013-.014-.021-.019-.032-.026-.069-.067-.127-.107-.188-.032-.05-.058-.103-.097-.145-.044-.046-.098-.077-.148-.114-.053-.038-.102-.081-.16-.108-.053-.024-.112-.032-.17-.047-.069-.018-.135-.039-.207-.042-.015 0-.026-.008-.04-.008h-10.003c-.014 0-.025.008-.04.008-.072.003-.138.024-.207.042-.058.015-.117.022-.17.047-.06.027-.107.07-.16.108-.051.037-.104.068-.147.114-.04.042-.065.095-.098.145-.04.061-.081.118-.107.188-.005.012-.015.02-.019.032l-1 3c-.017.051-.011.103-.019.154-.01.055-.033.104-.033.162v3.002c0 .553.447 1 1 1zm1.721-6.002h8.562l.334 1h-9.229zm-.721 4.002v-1.002h10.003v1.002zm9.003 5.002h-3.001v-.997c0-.553-.447-1-1-1s-1 .447-1 1v.997h-3.002v-3.002h8.003z"/><path d="m40.496 19.003c0-.553-.447-1-1-1h-1c-.012 0-.021.006-.032.007-.063.002-.124.023-.188.037-.067.016-.136.025-.198.054-.01.004-.02.003-.029.008-.045.022-.073.061-.113.088-.06.042-.12.079-.169.133-.044.047-.072.103-.106.157-.033.055-.07.104-.094.165-.025.068-.031.14-.042.212-.007.048-.028.09-.028.14 0 .011.006.02.006.03.002.066.024.13.04.196.016.065.024.131.052.19.004.01.003.021.008.03l.363.727c-.275.178-.469.474-.469.826 0 .553.447 1 1 1h1 .001c.002 0 .004-.001.006-.001.148-.001.286-.039.413-.098.009-.005.019-.002.027-.007.045-.022.073-.061.113-.088.06-.042.12-.079.169-.133.044-.047.072-.103.106-.157.033-.055.07-.104.094-.166.025-.067.031-.139.042-.211.007-.048.028-.09.028-.14 0-.011-.006-.02-.006-.03-.002-.066-.024-.13-.04-.195s-.023-.132-.052-.192c-.004-.009-.003-.02-.008-.029l-.363-.727c.276-.178.469-.474.469-.826z"/></svg>