<svg width="23" height="16" viewBox="0 0 23 16" fill="none" xmlns="http://www.w3.org/2000/svg">
<path d="M17.8897 3.72347L18.1571 3.46058L18.152 3.45544L18.1468 3.45049L17.8897 3.72347ZM15.8109 2.19414L15.6248 2.51969L15.6525 2.53552L15.6825 2.54644L15.8109 2.19414ZM4.84448 3.72347L5.11195 3.98631L5.11206 3.98619L4.84448 3.72347ZM1.25077 7.38044L0.983299 7.1176L0.982242 7.11868L1.25077 7.38044ZM1.25077 8.61964L0.98224 8.8814L0.983301 8.88248L1.25077 8.61964ZM4.84448 12.2766L4.57694 12.5395L4.583 12.5454L4.84448 12.2766ZM6.92321 13.8008L7.10934 13.4752L7.0911 13.4648L7.07182 13.4565L6.92321 13.8008ZM17.8897 12.274L18.157 12.537L18.1571 12.5369L17.8897 12.274ZM21.4834 8.61706L21.7508 8.8799L21.7514 8.87932L21.4834 8.61706ZM11.3668 12.0177C9.13447 12.0177 7.32779 10.2174 7.32779 8.00075H6.57779C6.57779 10.6351 8.7238 12.7677 11.3668 12.7677V12.0177ZM7.32779 8.00075C7.32779 5.7841 9.13447 3.98376 11.3668 3.98376V3.23376C8.7238 3.23376 6.57779 5.36635 6.57779 8.00075H7.32779ZM11.3668 3.98376C13.5992 3.98376 15.4059 5.7841 15.4059 8.00075H16.1559C16.1559 5.36635 14.0099 3.23376 11.3668 3.23376V3.98376ZM15.4059 8.00075C15.4059 10.2174 13.5992 12.0177 11.3668 12.0177V12.7677C14.0099 12.7677 16.1559 10.6351 16.1559 8.00075H15.4059ZM21.7508 7.11626L18.1571 3.46058L17.6222 3.98635L21.216 7.64204L21.7508 7.11626ZM18.1468 3.45049C17.4633 2.80667 16.9252 2.4095 16.551 2.17072C16.3638 2.05133 16.2177 1.97157 16.115 1.92041C16.0636 1.89484 16.0231 1.87642 15.9937 1.86378C15.979 1.85746 15.9671 1.85259 15.9581 1.84899C15.9535 1.84719 15.9497 1.8457 15.9466 1.84452C15.945 1.84393 15.9437 1.84341 15.9425 1.84296C15.9419 1.84274 15.9413 1.84253 15.9408 1.84234C15.9406 1.84225 15.9403 1.84216 15.9401 1.84207C15.94 1.84203 15.9398 1.84197 15.9397 1.84195C15.9396 1.84189 15.9394 1.84183 15.8109 2.19414C15.6825 2.54644 15.6823 2.54639 15.6822 2.54633C15.6821 2.54632 15.682 2.54626 15.6819 2.54623C15.6817 2.54616 15.6815 2.54609 15.6813 2.54603C15.681 2.54591 15.6807 2.54581 15.6805 2.54572C15.68 2.54554 15.6797 2.54543 15.6796 2.54539C15.6794 2.5453 15.6799 2.5455 15.6811 2.54599C15.6836 2.54697 15.689 2.54914 15.6972 2.55268C15.7137 2.55977 15.7416 2.57234 15.7807 2.59181C15.8589 2.63076 15.982 2.69736 16.1475 2.80298C16.4786 3.01423 16.9799 3.38173 17.6325 3.99644L18.1468 3.45049ZM15.9971 1.86859C12.3616 -0.209934 7.66581 0.314771 4.5769 3.46074L5.11206 3.98619C7.95608 1.08964 12.2776 0.605967 15.6248 2.51969L15.9971 1.86859ZM4.57701 3.46062L0.983301 7.1176L1.51824 7.64328L5.11195 3.98631L4.57701 3.46062ZM0.982242 7.11868C0.505919 7.60732 0.505919 8.39276 0.982242 8.8814L1.5193 8.35787C1.3269 8.16051 1.3269 7.83957 1.5193 7.6422L0.982242 7.11868ZM0.983301 8.88248L4.57701 12.5395L5.11195 12.0138L1.51824 8.35679L0.983301 8.88248ZM4.583 12.5454C5.18212 13.1282 5.72203 13.5247 6.11602 13.7771C6.31301 13.9033 6.47357 13.9935 6.58689 14.0531C6.64356 14.0828 6.68843 14.105 6.72016 14.1201C6.73602 14.1276 6.7486 14.1334 6.75773 14.1376C6.7623 14.1396 6.766 14.1413 6.76882 14.1425C6.77023 14.1432 6.77141 14.1437 6.77238 14.1441C6.77286 14.1443 6.77329 14.1445 6.77366 14.1447C6.77384 14.1447 6.77401 14.1448 6.77417 14.1449C6.77425 14.1449 6.77436 14.145 6.7744 14.145C6.7745 14.145 6.7746 14.1451 6.92321 13.8008C7.07182 13.4565 7.07191 13.4565 7.072 13.4566C7.07203 13.4566 7.07211 13.4566 7.07216 13.4566C7.07226 13.4567 7.07235 13.4567 7.07242 13.4567C7.07257 13.4568 7.07266 13.4568 7.0727 13.4569C7.07277 13.4569 7.07262 13.4568 7.07225 13.4567C7.07152 13.4563 7.06991 13.4556 7.06745 13.4545C7.06254 13.4523 7.05422 13.4485 7.04266 13.443C7.01954 13.4319 6.98348 13.4142 6.93578 13.3892C6.84037 13.339 6.69848 13.2595 6.52062 13.1456C6.16489 12.9177 5.66543 12.552 5.10596 12.0078L4.583 12.5454ZM6.73708 14.1263C8.18297 14.953 9.7945 15.375 11.4098 15.375V14.625C9.92523 14.625 8.442 14.2372 7.10934 13.4752L6.73708 14.1263ZM11.4098 15.375C13.854 15.375 16.2971 14.4279 18.157 12.537L17.6223 12.0111C15.908 13.7539 13.6596 14.625 11.4098 14.625V15.375ZM18.1571 12.5369L21.7508 8.8799L21.2159 8.35421L17.6222 12.0112L18.1571 12.5369ZM21.7514 8.87932C22.2287 8.39157 22.228 7.60575 21.7519 7.11739L21.2148 7.64091C21.4075 7.83855 21.4068 8.15911 21.2153 8.35479L21.7514 8.87932Z" fill="#A7A9AC"/>
</svg>
